<?xml version="1.0" standalone="no"?>
<!DOCTYPE svg PUBLIC "-//W3C//DTD SVG 20010904//EN"
 "http://www.w3.org/TR/2001/REC-SVG-20010904/DTD/svg10.dtd">
<svg version="1.0" xmlns="http://www.w3.org/2000/svg"
 width="1146.000000pt" height="1280.000000pt" viewBox="0 0 1146.000000 1280.000000"
 preserveAspectRatio="xMidYMid meet">
<metadata>
Created by potrace 1.15, written by Peter Selinger 2001-2017
</metadata>
<g transform="translate(0.000000,1280.000000) scale(0.100000,-0.100000)"
fill="#000000" stroke="none">
<path d="M8220 12789 c-431 -39 -802 -337 -923 -739 -109 -360 8 -769 290
-1018 135 -119 325 -243 446 -292 150 -60 234 -75 427 -74 156 0 185 3 271 26
135 37 233 80 337 148 167 110 308 276 383 450 64 149 74 204 73 395 0 156 -2
177 -28 260 -33 107 -90 225 -150 309 -68 94 -246 256 -392 355 -205 138 -472
204 -734 180z"/>
<path d="M7420 10463 c-339 -33 -627 -169 -865 -407 -123 -123 -67 -43 -860
-1248 l-380 -577 -837 -1 c-912 0 -930 -1 -1044 -57 -76 -37 -153 -113 -190
-188 -26 -54 -29 -70 -29 -155 0 -86 3 -101 31 -160 34 -72 89 -132 166 -182
29 -18 62 -42 74 -53 29 -27 102 -63 167 -83 46 -14 166 -17 986 -19 554 -2
977 0 1039 6 86 8 117 16 171 42 119 59 154 103 590 757 221 332 406 613 410
625 5 13 10 -14 14 -79 4 -54 7 -1879 7 -4055 0 -3593 1 -3960 16 -4010 40
-134 133 -259 252 -337 32 -20 72 -50 91 -65 132 -112 386 -149 571 -82 184
67 313 199 376 385 18 53 19 145 22 2485 l2 2429 22 23 c20 21 28 22 214 25
l194 3 0 -2380 c0 -2634 -4 -2451 66 -2593 42 -86 129 -180 219 -237 33 -21
61 -42 63 -47 6 -13 124 -76 188 -100 50 -18 80 -22 194 -22 121 0 142 3 202
26 197 75 334 223 383 413 13 52 15 368 15 2695 0 3598 9 5675 26 5698 11 15
38 18 208 22 189 5 195 4 200 -15 3 -11 6 -697 6 -1525 0 -1622 -2 -1558 51
-1661 29 -57 94 -126 159 -167 30 -20 64 -44 75 -55 11 -11 49 -34 85 -51 60
-29 73 -31 170 -31 86 1 116 5 163 24 116 46 219 174 247 304 7 36 10 554 8
1732 l-3 1680 -24 85 c-30 110 -88 243 -147 340 -62 104 -196 263 -275 327
-35 29 -100 83 -144 119 -271 225 -576 356 -917 393 -89 10 -2332 14 -2428 4z"/>
<path d="M1912 7127 l-283 -283 284 -290 c210 -212 288 -286 296 -278 9 8 22
1 50 -28 68 -67 63 -70 348 215 140 138 256 262 259 274 3 11 1 29 -4 40 -15
27 -502 508 -512 506 -4 -1 -40 27 -78 62 -39 36 -72 65 -74 65 -2 0 -130
-127 -286 -283z"/>
<path d="M2420 5785 l-285 -286 288 -286 c192 -191 291 -283 298 -276 6 6 23
-3 48 -29 68 -67 63 -70 348 215 140 138 256 262 259 274 3 11 1 29 -4 40 -14
26 -500 508 -513 508 -5 0 -41 28 -79 63 -38 34 -70 62 -72 62 -2 0 -131 -128
-288 -285z"/>
<path d="M3 5348 c3 -13 218 -1168 476 -2568 259 -1400 473 -2555 476 -2567 5
-20 12 -23 58 -23 51 0 53 -1 65 -34 9 -24 22 -38 44 -45 22 -8 473 -11 1515
-11 1636 0 1540 -4 1562 62 6 18 42 200 80 403 39 204 129 683 201 1065 72
382 194 1030 271 1440 77 410 198 1054 269 1432 72 377 130 700 130 717 0 40
-36 65 -86 59 l-36 -4 6 48 7 48 -365 0 -365 0 -10 -52 c-6 -29 -38 -192 -70
-363 -33 -170 -123 -641 -201 -1045 -77 -404 -172 -897 -210 -1095 -38 -198
-110 -574 -160 -835 -50 -261 -116 -602 -146 -757 -30 -156 -54 -287 -54 -293
0 -7 -293 -10 -895 -10 -852 0 -895 1 -895 18 0 10 -25 150 -55 312 -225 1197
-438 2330 -635 3375 -61 325 -118 600 -126 613 -16 25 -56 44 -82 40 -11 -2
-19 10 -27 42 l-11 45 -368 3 -368 2 5 -22z"/>
<path d="M2082 4058 l3 -393 63 -3 c57 -3 62 -5 62 -26 0 -13 9 -31 21 -42 20
-18 41 -19 371 -19 l350 0 19 24 c18 22 19 43 19 371 l0 349 -26 20 c-15 12
-41 21 -60 21 -34 0 -34 1 -34 45 l0 45 -395 0 -395 0 2 -392z"/>
</g>
</svg>
